<svg width="24" height="24" viewBox="0 0 24 24" fill="none" xmlns="http://www.w3.org/2000/svg">
<path d="M10 17L9.2929 16.2929L8.5858 17L9.2929 17.7071L10 17ZM5.07181 14C5.34795 14.4783 5.95954 14.6422 6.43783 14.366C6.91612 14.0899 7.08 13.4783 6.80386 13L5.07181 14ZM12 16C11.4477 16 11 16.4477 11 17C11 17.5523 11.4477 18 12 18V16ZM13.2929 12.2929L9.2929 16.2929L10.7071 17.7071L14.7071 13.7071L13.2929 12.2929ZM9.2929 17.7071L13.2929 21.7071L14.7071 20.2929L10.7071 16.2929L9.2929 17.7071ZM6.80386 13C6.14345 11.8562 5.87894 10.5264 6.05134 9.21685L4.06845 8.9558C3.83858 10.7018 4.19127 12.4749 5.07181 14L6.80386 13ZM6.05134 9.21685C6.22374 7.90735 6.82342 6.69132 7.75737 5.75737L6.34316 4.34316C5.09789 5.58842 4.29832 7.20979 4.06845 8.9558L6.05134 9.21685ZM7.75737 5.75737C8.69132 4.82342 9.90735 4.22374 11.2169 4.05134L10.9558 2.06845C9.20979 2.29832 7.58842 3.09789 6.34316 4.34316L7.75737 5.75737ZM11.2169 4.05134C12.5264 3.87894 13.8562 4.14345 15 4.80386L16 3.07181C14.4749 2.19127 12.7018 1.83858 10.9558 2.06845L11.2169 4.05134ZM15 4.80386C16.1439 5.46426 17.0378 6.48364 17.5433 7.70391L19.391 6.93854C18.7171 5.31152 17.5251 3.95234 16 3.07181L15 4.80386ZM17.5433 7.70391C18.0487 8.92417 18.1374 10.2771 17.7956 11.5529L19.7274 12.0706C20.1832 10.3695 20.065 8.56556 19.391 6.93854L17.5433 7.70391ZM17.7956 11.5529C17.4537 12.8287 16.7004 13.9561 15.6526 14.7601L16.8701 16.3468C18.2673 15.2748 19.2716 13.7716 19.7274 12.0706L17.7956 11.5529ZM15.6526 14.7601C14.6047 15.5642 13.3208 16 12 16V18C13.7611 18 15.4729 17.4189 16.8701 16.3468L15.6526 14.7601Z" fill="#20409A"/>
</svg>
